<mxfile host="app.diagrams.net" agent="Mozilla/5.0 (X11; Linux x86_64) AppleWebKit/537.36 (KHTML, like Gecko) Chrome/134.0.0.0 Safari/537.36" version="26.2.12">
  <diagram name="Page-1" id="Bm3jg8khBJ46upWnwX4P">
    <mxGraphModel dx="2220" dy="1950" grid="1" gridSize="10" guides="1" tooltips="1" connect="1" arrows="1" fold="1" page="1" pageScale="1" pageWidth="850" pageHeight="1100" math="0" shadow="0">
      <root>
        <mxCell id="0" />
        <mxCell id="1" parent="0" />
        <mxCell id="uGQjyCQQ9CPFhTo40W40-126" value="" style="group" vertex="1" connectable="0" parent="1">
          <mxGeometry x="-190" y="-220" width="700" height="1440" as="geometry" />
        </mxCell>
        <mxCell id="uGQjyCQQ9CPFhTo40W40-38" value="" style="edgeStyle=none;orthogonalLoop=1;jettySize=auto;html=1;rounded=0;fontSize=12;startSize=8;endSize=8;curved=1;" edge="1" parent="uGQjyCQQ9CPFhTo40W40-126" source="uGQjyCQQ9CPFhTo40W40-1" target="uGQjyCQQ9CPFhTo40W40-3">
          <mxGeometry width="120" relative="1" as="geometry">
            <mxPoint x="505" y="180" as="sourcePoint" />
            <mxPoint x="625" y="180" as="targetPoint" />
            <Array as="points">
              <mxPoint x="206" y="170" />
            </Array>
          </mxGeometry>
        </mxCell>
        <mxCell id="uGQjyCQQ9CPFhTo40W40-41" value="HTTP /&amp;nbsp;&lt;br&gt;WebSocket" style="edgeLabel;html=1;align=center;verticalAlign=middle;resizable=0;points=[];fontSize=12;" vertex="1" connectable="0" parent="uGQjyCQQ9CPFhTo40W40-38">
          <mxGeometry x="-0.3927" relative="1" as="geometry">
            <mxPoint as="offset" />
          </mxGeometry>
        </mxCell>
        <mxCell id="uGQjyCQQ9CPFhTo40W40-48" value="" style="edgeStyle=none;orthogonalLoop=1;jettySize=auto;html=1;rounded=0;fontSize=12;startSize=8;endSize=8;curved=1;exitX=0.492;exitY=0.935;exitDx=0;exitDy=0;exitPerimeter=0;" edge="1" parent="uGQjyCQQ9CPFhTo40W40-126" source="uGQjyCQQ9CPFhTo40W40-21" target="uGQjyCQQ9CPFhTo40W40-3">
          <mxGeometry width="120" relative="1" as="geometry">
            <mxPoint x="505" y="300" as="sourcePoint" />
            <mxPoint x="625" y="300" as="targetPoint" />
            <Array as="points" />
          </mxGeometry>
        </mxCell>
        <mxCell id="uGQjyCQQ9CPFhTo40W40-49" value="Send &lt;br&gt;CRDT &lt;br&gt;Operations" style="edgeLabel;html=1;align=center;verticalAlign=middle;resizable=0;points=[];fontSize=12;" vertex="1" connectable="0" parent="uGQjyCQQ9CPFhTo40W40-48">
          <mxGeometry x="-0.2281" y="-2" relative="1" as="geometry">
            <mxPoint y="3" as="offset" />
          </mxGeometry>
        </mxCell>
        <mxCell id="uGQjyCQQ9CPFhTo40W40-50" value="" style="edgeStyle=none;orthogonalLoop=1;jettySize=auto;html=1;rounded=0;fontSize=12;startSize=8;endSize=8;curved=1;" edge="1" parent="uGQjyCQQ9CPFhTo40W40-126" source="uGQjyCQQ9CPFhTo40W40-3" target="uGQjyCQQ9CPFhTo40W40-1">
          <mxGeometry width="120" relative="1" as="geometry">
            <mxPoint x="505" y="300" as="sourcePoint" />
            <mxPoint x="625" y="300" as="targetPoint" />
            <Array as="points">
              <mxPoint x="483" y="143" />
            </Array>
          </mxGeometry>
        </mxCell>
        <mxCell id="uGQjyCQQ9CPFhTo40W40-51" value="Broadcast&lt;br&gt;CRDT&lt;br&gt;Operations" style="edgeLabel;html=1;align=center;verticalAlign=middle;resizable=0;points=[];fontSize=12;" vertex="1" connectable="0" parent="uGQjyCQQ9CPFhTo40W40-50">
          <mxGeometry x="0.3762" y="31" relative="1" as="geometry">
            <mxPoint x="-1" as="offset" />
          </mxGeometry>
        </mxCell>
        <mxCell id="uGQjyCQQ9CPFhTo40W40-52" value="" style="edgeStyle=none;orthogonalLoop=1;jettySize=auto;html=1;rounded=0;fontSize=12;startSize=8;endSize=8;curved=1;exitX=0.5;exitY=1.133;exitDx=0;exitDy=0;exitPerimeter=0;" edge="1" parent="uGQjyCQQ9CPFhTo40W40-126" source="uGQjyCQQ9CPFhTo40W40-29" target="uGQjyCQQ9CPFhTo40W40-3">
          <mxGeometry width="120" relative="1" as="geometry">
            <mxPoint x="505" y="420" as="sourcePoint" />
            <mxPoint x="625" y="420" as="targetPoint" />
            <Array as="points">
              <mxPoint x="530" y="220" />
            </Array>
          </mxGeometry>
        </mxCell>
        <mxCell id="uGQjyCQQ9CPFhTo40W40-53" value="HTTP &lt;br&gt;(Submit Response)" style="edgeLabel;html=1;align=center;verticalAlign=middle;resizable=0;points=[];fontSize=12;" vertex="1" connectable="0" parent="uGQjyCQQ9CPFhTo40W40-52">
          <mxGeometry x="0.2551" relative="1" as="geometry">
            <mxPoint x="51" y="-59" as="offset" />
          </mxGeometry>
        </mxCell>
        <mxCell id="uGQjyCQQ9CPFhTo40W40-78" value="" style="edgeStyle=none;orthogonalLoop=1;jettySize=auto;html=1;rounded=0;fontSize=12;startSize=8;endSize=8;curved=1;exitX=0.5;exitY=1;exitDx=0;exitDy=0;" edge="1" parent="uGQjyCQQ9CPFhTo40W40-126" source="uGQjyCQQ9CPFhTo40W40-14" target="uGQjyCQQ9CPFhTo40W40-74">
          <mxGeometry width="120" relative="1" as="geometry">
            <mxPoint x="220" y="810" as="sourcePoint" />
            <mxPoint x="461" y="899" as="targetPoint" />
            <Array as="points" />
          </mxGeometry>
        </mxCell>
        <mxCell id="uGQjyCQQ9CPFhTo40W40-79" value="CRDT&lt;br&gt;Events" style="edgeLabel;html=1;align=center;verticalAlign=middle;resizable=0;points=[];fontSize=12;" vertex="1" connectable="0" parent="uGQjyCQQ9CPFhTo40W40-78">
          <mxGeometry x="-0.0528" relative="1" as="geometry">
            <mxPoint as="offset" />
          </mxGeometry>
        </mxCell>
        <mxCell id="uGQjyCQQ9CPFhTo40W40-109" style="edgeStyle=none;curved=1;rounded=0;orthogonalLoop=1;jettySize=auto;html=1;entryX=0.521;entryY=0.031;entryDx=0;entryDy=0;entryPerimeter=0;fontSize=12;startSize=8;endSize=8;" edge="1" parent="uGQjyCQQ9CPFhTo40W40-126" target="uGQjyCQQ9CPFhTo40W40-108">
          <mxGeometry relative="1" as="geometry">
            <mxPoint x="150" y="790" as="sourcePoint" />
          </mxGeometry>
        </mxCell>
        <mxCell id="uGQjyCQQ9CPFhTo40W40-110" value="Store&lt;br&gt;[&amp;nbsp; &amp;nbsp; &amp;nbsp; &amp;nbsp; &amp;nbsp; &amp;nbsp; &amp;nbsp; &amp;nbsp; &amp;nbsp; &amp;nbsp; &amp;nbsp; &amp;nbsp; &amp;nbsp; &amp;nbsp; &amp;nbsp; &amp;nbsp; &amp;nbsp; &amp;nbsp; &amp;nbsp;&amp;nbsp;&lt;br&gt;1. Auth &amp;amp; Permission&lt;br&gt;2. Respondent Details&lt;br&gt;3. Store Responses&lt;br&gt;&amp;nbsp; &amp;nbsp; &amp;nbsp; &amp;nbsp; &amp;nbsp; &amp;nbsp; &amp;nbsp; &amp;nbsp; &amp;nbsp; &amp;nbsp; &amp;nbsp; &amp;nbsp; &amp;nbsp; &amp;nbsp; &amp;nbsp; &amp;nbsp; &amp;nbsp; &amp;nbsp; &amp;nbsp; ]" style="edgeLabel;html=1;align=center;verticalAlign=middle;resizable=0;points=[];fontSize=12;" vertex="1" connectable="0" parent="uGQjyCQQ9CPFhTo40W40-109">
          <mxGeometry x="0.5037" y="-1" relative="1" as="geometry">
            <mxPoint x="-22" y="62" as="offset" />
          </mxGeometry>
        </mxCell>
        <mxCell id="uGQjyCQQ9CPFhTo40W40-111" style="edgeStyle=none;curved=1;rounded=0;orthogonalLoop=1;jettySize=auto;html=1;entryX=0.5;entryY=0;entryDx=0;entryDy=0;fontSize=12;startSize=8;endSize=8;" edge="1" parent="uGQjyCQQ9CPFhTo40W40-126" target="uGQjyCQQ9CPFhTo40W40-16">
          <mxGeometry relative="1" as="geometry">
            <mxPoint x="280" y="790" as="sourcePoint" />
          </mxGeometry>
        </mxCell>
        <mxCell id="uGQjyCQQ9CPFhTo40W40-112" value="[&amp;nbsp; &amp;nbsp; &amp;nbsp; &amp;nbsp; &amp;nbsp; &amp;nbsp; &amp;nbsp; &amp;nbsp; &amp;nbsp; &amp;nbsp; &amp;nbsp; &amp;nbsp; &amp;nbsp; &amp;nbsp; &amp;nbsp; &amp;nbsp; &amp;nbsp; &amp;nbsp; &amp;nbsp; &amp;nbsp; &amp;nbsp; &amp;nbsp;&amp;nbsp;&lt;br&gt;1. Distributed Locks&lt;br&gt;2. Write CRDT Operations&lt;br&gt;3. Document Versions&lt;br&gt;4. Form Distributions&lt;br&gt;5. Document Snapshots&lt;br&gt;&amp;nbsp; &amp;nbsp; &amp;nbsp; &amp;nbsp; &amp;nbsp; &amp;nbsp; &amp;nbsp; &amp;nbsp; &amp;nbsp; &amp;nbsp; &amp;nbsp; &amp;nbsp; &amp;nbsp; &amp;nbsp; &amp;nbsp; &amp;nbsp; &amp;nbsp; &amp;nbsp; &amp;nbsp; &amp;nbsp; &amp;nbsp; &amp;nbsp;]" style="edgeLabel;html=1;align=center;verticalAlign=middle;resizable=0;points=[];fontSize=12;" vertex="1" connectable="0" parent="uGQjyCQQ9CPFhTo40W40-111">
          <mxGeometry x="0.4381" y="-1" relative="1" as="geometry">
            <mxPoint x="-6" y="71" as="offset" />
          </mxGeometry>
        </mxCell>
        <mxCell id="uGQjyCQQ9CPFhTo40W40-113" style="edgeStyle=none;curved=1;rounded=0;orthogonalLoop=1;jettySize=auto;html=1;exitX=0.983;exitY=0.617;exitDx=0;exitDy=0;fontSize=12;startSize=8;endSize=8;entryX=1;entryY=0.5;entryDx=0;entryDy=0;exitPerimeter=0;" edge="1" parent="uGQjyCQQ9CPFhTo40W40-126" source="uGQjyCQQ9CPFhTo40W40-74" target="uGQjyCQQ9CPFhTo40W40-16">
          <mxGeometry relative="1" as="geometry">
            <mxPoint x="270" y="1350" as="targetPoint" />
            <Array as="points">
              <mxPoint x="420" y="1280" />
            </Array>
          </mxGeometry>
        </mxCell>
        <mxCell id="uGQjyCQQ9CPFhTo40W40-115" value="Store&lt;br&gt;[&amp;nbsp; &amp;nbsp; &amp;nbsp; &amp;nbsp; &amp;nbsp; &amp;nbsp; &amp;nbsp; &amp;nbsp; &amp;nbsp; &amp;nbsp; &amp;nbsp; &amp;nbsp; &amp;nbsp; &amp;nbsp; &amp;nbsp; &amp;nbsp; &amp;nbsp; &amp;nbsp; &amp;nbsp; &amp;nbsp; &amp;nbsp; &amp;nbsp;&lt;br&gt;1. Document Snapshots&lt;br&gt;2. Last Processed Version&lt;br&gt;&amp;nbsp; &amp;nbsp; &amp;nbsp; &amp;nbsp; &amp;nbsp; &amp;nbsp; &amp;nbsp; &amp;nbsp; &amp;nbsp; &amp;nbsp; &amp;nbsp; &amp;nbsp; &amp;nbsp; &amp;nbsp; &amp;nbsp; &amp;nbsp; &amp;nbsp; &amp;nbsp; &amp;nbsp; &amp;nbsp; &amp;nbsp; ]" style="edgeLabel;html=1;align=center;verticalAlign=middle;resizable=0;points=[];fontSize=12;" vertex="1" connectable="0" parent="uGQjyCQQ9CPFhTo40W40-113">
          <mxGeometry x="-0.2305" y="-25" relative="1" as="geometry">
            <mxPoint x="57" y="139" as="offset" />
          </mxGeometry>
        </mxCell>
        <mxCell id="uGQjyCQQ9CPFhTo40W40-116" style="edgeStyle=none;curved=1;rounded=0;orthogonalLoop=1;jettySize=auto;html=1;exitX=1;exitY=0.5;exitDx=0;exitDy=0;entryX=0.04;entryY=0.476;entryDx=0;entryDy=0;entryPerimeter=0;fontSize=12;startSize=8;endSize=8;" edge="1" parent="uGQjyCQQ9CPFhTo40W40-126" source="uGQjyCQQ9CPFhTo40W40-74" target="uGQjyCQQ9CPFhTo40W40-18">
          <mxGeometry relative="1" as="geometry" />
        </mxCell>
        <mxCell id="uGQjyCQQ9CPFhTo40W40-117" value="Cache Document&lt;br&gt;Snapshot" style="edgeLabel;html=1;align=center;verticalAlign=middle;resizable=0;points=[];fontSize=12;" vertex="1" connectable="0" parent="uGQjyCQQ9CPFhTo40W40-116">
          <mxGeometry x="0.1537" y="-2" relative="1" as="geometry">
            <mxPoint x="11" y="27" as="offset" />
          </mxGeometry>
        </mxCell>
        <mxCell id="uGQjyCQQ9CPFhTo40W40-118" style="edgeStyle=none;curved=1;rounded=0;orthogonalLoop=1;jettySize=auto;html=1;fontSize=12;startSize=8;endSize=8;" edge="1" parent="uGQjyCQQ9CPFhTo40W40-126" target="uGQjyCQQ9CPFhTo40W40-18">
          <mxGeometry relative="1" as="geometry">
            <mxPoint x="580" y="780" as="sourcePoint" />
          </mxGeometry>
        </mxCell>
        <mxCell id="uGQjyCQQ9CPFhTo40W40-119" value="Check&lt;br&gt;Snapshot" style="edgeLabel;html=1;align=center;verticalAlign=middle;resizable=0;points=[];fontSize=12;" vertex="1" connectable="0" parent="uGQjyCQQ9CPFhTo40W40-118">
          <mxGeometry x="0.5417" y="-2" relative="1" as="geometry">
            <mxPoint x="-5" y="67" as="offset" />
          </mxGeometry>
        </mxCell>
        <mxCell id="uGQjyCQQ9CPFhTo40W40-121" value="" style="group" vertex="1" connectable="0" parent="uGQjyCQQ9CPFhTo40W40-126">
          <mxGeometry x="30" y="1158" width="660" height="282" as="geometry" />
        </mxCell>
        <mxCell id="uGQjyCQQ9CPFhTo40W40-16" value="MongoDB&#xa;Sharded Cluster" style="shape=rect;fillColor=#0F62FE;aspect=fixed;resizable=0;labelPosition=center;verticalLabelPosition=bottom;align=center;verticalAlign=top;strokeColor=none;fontSize=14;" vertex="1" parent="uGQjyCQQ9CPFhTo40W40-121">
          <mxGeometry x="240" y="162" width="48" height="48" as="geometry" />
        </mxCell>
        <mxCell id="uGQjyCQQ9CPFhTo40W40-17" value="" style="fillColor=#ffffff;strokeColor=none;dashed=0;outlineConnect=0;html=1;labelPosition=center;verticalLabelPosition=bottom;verticalAlign=top;part=1;movable=0;resizable=0;rotatable=0;shape=mxgraph.ibm_cloud.database--mongodb" vertex="1" parent="uGQjyCQQ9CPFhTo40W40-16">
          <mxGeometry width="24" height="24" relative="1" as="geometry">
            <mxPoint x="12" y="12" as="offset" />
          </mxGeometry>
        </mxCell>
        <mxCell id="uGQjyCQQ9CPFhTo40W40-102" value="" style="group" vertex="1" connectable="0" parent="uGQjyCQQ9CPFhTo40W40-121">
          <mxGeometry x="540" y="142" width="60" height="58" as="geometry" />
        </mxCell>
        <mxCell id="uGQjyCQQ9CPFhTo40W40-18" value="" style="image;sketch=0;aspect=fixed;html=1;points=[];align=center;fontSize=12;image=img/lib/mscae/Cache_Redis_Product.svg;" vertex="1" parent="uGQjyCQQ9CPFhTo40W40-102">
          <mxGeometry x="5" width="50" height="42" as="geometry" />
        </mxCell>
        <mxCell id="uGQjyCQQ9CPFhTo40W40-94" value="&lt;font style=&quot;font-size: 14px;&quot;&gt;Redis&lt;/font&gt;" style="text;html=1;align=center;verticalAlign=middle;resizable=0;points=[];autosize=1;strokeColor=none;fillColor=none;fontSize=16;" vertex="1" parent="uGQjyCQQ9CPFhTo40W40-102">
          <mxGeometry y="28" width="60" height="30" as="geometry" />
        </mxCell>
        <mxCell id="uGQjyCQQ9CPFhTo40W40-108" value="" style="image;aspect=fixed;html=1;points=[];align=center;fontSize=12;image=img/lib/azure2/databases/Azure_Database_PostgreSQL_Server.svg;" vertex="1" parent="uGQjyCQQ9CPFhTo40W40-121">
          <mxGeometry x="100" y="162" width="48" height="64" as="geometry" />
        </mxCell>
        <mxCell id="uGQjyCQQ9CPFhTo40W40-114" style="edgeStyle=none;curved=1;rounded=0;orthogonalLoop=1;jettySize=auto;html=1;entryX=1;entryY=0.5;entryDx=0;entryDy=0;fontSize=12;startSize=8;endSize=8;" edge="1" parent="uGQjyCQQ9CPFhTo40W40-121" source="uGQjyCQQ9CPFhTo40W40-16" target="uGQjyCQQ9CPFhTo40W40-16">
          <mxGeometry relative="1" as="geometry" />
        </mxCell>
        <mxCell id="uGQjyCQQ9CPFhTo40W40-120" value="Data Storage Tier" style="swimlane;startSize=23;" vertex="1" parent="uGQjyCQQ9CPFhTo40W40-121">
          <mxGeometry width="660" height="282" as="geometry" />
        </mxCell>
        <mxCell id="uGQjyCQQ9CPFhTo40W40-122" value="" style="group" vertex="1" connectable="0" parent="uGQjyCQQ9CPFhTo40W40-126">
          <mxGeometry x="108" y="958" width="522" height="162" as="geometry" />
        </mxCell>
        <mxCell id="uGQjyCQQ9CPFhTo40W40-73" value="" style="group" vertex="1" connectable="0" parent="uGQjyCQQ9CPFhTo40W40-122">
          <mxGeometry x="193" y="43" width="81" height="110" as="geometry" />
        </mxCell>
        <mxCell id="uGQjyCQQ9CPFhTo40W40-74" value="" style="image;aspect=fixed;perimeter=ellipsePerimeter;html=1;align=center;shadow=0;dashed=0;fontColor=#4277BB;labelBackgroundColor=default;fontSize=12;spacingTop=3;image=img/lib/ibm/blockchain/message_bus.svg;" vertex="1" parent="uGQjyCQQ9CPFhTo40W40-73">
          <mxGeometry x="7" width="60" height="60" as="geometry" />
        </mxCell>
        <mxCell id="uGQjyCQQ9CPFhTo40W40-75" value="&lt;font style=&quot;font-size: 14px;&quot;&gt;kafka&lt;br&gt;consumer&lt;/font&gt;" style="text;html=1;align=center;verticalAlign=middle;resizable=0;points=[];autosize=1;strokeColor=none;fillColor=none;fontSize=16;" vertex="1" parent="uGQjyCQQ9CPFhTo40W40-73">
          <mxGeometry x="-5" y="60" width="80" height="50" as="geometry" />
        </mxCell>
        <mxCell id="uGQjyCQQ9CPFhTo40W40-106" value="Messaging Tier" style="swimlane;" vertex="1" parent="uGQjyCQQ9CPFhTo40W40-122">
          <mxGeometry width="522" height="162" as="geometry" />
        </mxCell>
        <mxCell id="uGQjyCQQ9CPFhTo40W40-123" value="" style="group" vertex="1" connectable="0" parent="uGQjyCQQ9CPFhTo40W40-126">
          <mxGeometry y="570" width="700" height="360" as="geometry" />
        </mxCell>
        <mxCell id="uGQjyCQQ9CPFhTo40W40-20" value="" style="group" vertex="1" connectable="0" parent="uGQjyCQQ9CPFhTo40W40-123">
          <mxGeometry x="136" y="60" width="490" height="169" as="geometry" />
        </mxCell>
        <mxCell id="uGQjyCQQ9CPFhTo40W40-10" value="" style="sketch=0;outlineConnect=0;fontColor=#232F3E;gradientColor=none;fillColor=#232F3D;strokeColor=none;dashed=0;verticalLabelPosition=bottom;verticalAlign=top;align=center;html=1;fontSize=12;fontStyle=0;aspect=fixed;pointerEvents=1;shape=mxgraph.aws4.servers;" vertex="1" parent="uGQjyCQQ9CPFhTo40W40-20">
          <mxGeometry x="52" y="58" width="78" height="78" as="geometry" />
        </mxCell>
        <mxCell id="uGQjyCQQ9CPFhTo40W40-11" value="" style="sketch=0;outlineConnect=0;fontColor=#232F3E;gradientColor=none;fillColor=#232F3D;strokeColor=none;dashed=0;verticalLabelPosition=bottom;verticalAlign=top;align=center;html=1;fontSize=12;fontStyle=0;aspect=fixed;pointerEvents=1;shape=mxgraph.aws4.servers;" vertex="1" parent="uGQjyCQQ9CPFhTo40W40-20">
          <mxGeometry x="159" y="58" width="78" height="78" as="geometry" />
        </mxCell>
        <mxCell id="uGQjyCQQ9CPFhTo40W40-12" value="" style="sketch=0;outlineConnect=0;fontColor=#232F3E;gradientColor=none;fillColor=#232F3D;strokeColor=none;dashed=0;verticalLabelPosition=bottom;verticalAlign=top;align=center;html=1;fontSize=12;fontStyle=0;aspect=fixed;pointerEvents=1;shape=mxgraph.aws4.servers;" vertex="1" parent="uGQjyCQQ9CPFhTo40W40-20">
          <mxGeometry x="271" y="58" width="78" height="78" as="geometry" />
        </mxCell>
        <mxCell id="uGQjyCQQ9CPFhTo40W40-19" value="Server Cluster" style="swimlane;" vertex="1" parent="uGQjyCQQ9CPFhTo40W40-20">
          <mxGeometry x="-31" y="-16" width="520" height="169" as="geometry" />
        </mxCell>
        <mxCell id="uGQjyCQQ9CPFhTo40W40-103" value="Application Layer" style="swimlane;" vertex="1" parent="uGQjyCQQ9CPFhTo40W40-123">
          <mxGeometry width="700" height="360" as="geometry" />
        </mxCell>
        <mxCell id="uGQjyCQQ9CPFhTo40W40-72" value="" style="group" vertex="1" connectable="0" parent="uGQjyCQQ9CPFhTo40W40-103">
          <mxGeometry x="304" y="260" width="70" height="100" as="geometry" />
        </mxCell>
        <mxCell id="uGQjyCQQ9CPFhTo40W40-14" value="" style="image;aspect=fixed;perimeter=ellipsePerimeter;html=1;align=center;shadow=0;dashed=0;fontColor=#4277BB;labelBackgroundColor=default;fontSize=12;spacingTop=3;image=img/lib/ibm/blockchain/message_bus.svg;" vertex="1" parent="uGQjyCQQ9CPFhTo40W40-72">
          <mxGeometry x="7" width="60" height="60" as="geometry" />
        </mxCell>
        <mxCell id="uGQjyCQQ9CPFhTo40W40-71" value="&lt;font style=&quot;font-size: 14px;&quot;&gt;kafka&lt;/font&gt;" style="text;html=1;align=center;verticalAlign=middle;resizable=0;points=[];autosize=1;strokeColor=none;fillColor=none;fontSize=16;" vertex="1" parent="uGQjyCQQ9CPFhTo40W40-72">
          <mxGeometry x="5" y="70" width="60" height="30" as="geometry" />
        </mxCell>
        <mxCell id="uGQjyCQQ9CPFhTo40W40-104" value="" style="edgeStyle=none;orthogonalLoop=1;jettySize=auto;html=1;rounded=0;fontSize=12;startSize=8;endSize=8;curved=1;" edge="1" parent="uGQjyCQQ9CPFhTo40W40-123" target="uGQjyCQQ9CPFhTo40W40-14">
          <mxGeometry width="120" relative="1" as="geometry">
            <mxPoint x="340" y="210" as="sourcePoint" />
            <mxPoint x="660" y="200" as="targetPoint" />
            <Array as="points" />
          </mxGeometry>
        </mxCell>
        <mxCell id="uGQjyCQQ9CPFhTo40W40-105" value="CRDT Operations" style="edgeLabel;html=1;align=center;verticalAlign=middle;resizable=0;points=[];fontSize=12;" vertex="1" connectable="0" parent="uGQjyCQQ9CPFhTo40W40-104">
          <mxGeometry x="-0.2692" relative="1" as="geometry">
            <mxPoint as="offset" />
          </mxGeometry>
        </mxCell>
        <mxCell id="uGQjyCQQ9CPFhTo40W40-124" value="" style="group" vertex="1" connectable="0" parent="uGQjyCQQ9CPFhTo40W40-126">
          <mxGeometry x="108" y="240" width="522" height="300" as="geometry" />
        </mxCell>
        <mxCell id="uGQjyCQQ9CPFhTo40W40-3" value="Amazon API Gateway" style="sketch=0;outlineConnect=0;fontColor=#232F3E;gradientColor=none;strokeColor=#ffffff;fillColor=#232F3E;dashed=0;verticalLabelPosition=middle;verticalAlign=bottom;align=center;html=1;whiteSpace=wrap;fontSize=10;fontStyle=1;spacing=3;shape=mxgraph.aws4.productIcon;prIcon=mxgraph.aws4.api_gateway;" vertex="1" parent="uGQjyCQQ9CPFhTo40W40-124">
          <mxGeometry x="190" y="11" width="80" height="110" as="geometry" />
        </mxCell>
        <mxCell id="uGQjyCQQ9CPFhTo40W40-7" value="Application Load Balancer" style="sketch=0;outlineConnect=0;fontColor=#232F3E;gradientColor=none;strokeColor=#ffffff;fillColor=#232F3E;dashed=0;verticalLabelPosition=middle;verticalAlign=bottom;align=center;html=1;whiteSpace=wrap;fontSize=10;fontStyle=1;spacing=3;shape=mxgraph.aws4.productIcon;prIcon=mxgraph.aws4.application_load_balancer;" vertex="1" parent="uGQjyCQQ9CPFhTo40W40-124">
          <mxGeometry x="190" y="163" width="80" height="110" as="geometry" />
        </mxCell>
        <mxCell id="uGQjyCQQ9CPFhTo40W40-44" value="" style="edgeStyle=none;orthogonalLoop=1;jettySize=auto;html=1;rounded=0;fontSize=12;startSize=8;endSize=8;curved=1;" edge="1" parent="uGQjyCQQ9CPFhTo40W40-124" source="uGQjyCQQ9CPFhTo40W40-3" target="uGQjyCQQ9CPFhTo40W40-7">
          <mxGeometry width="120" relative="1" as="geometry">
            <mxPoint x="397" y="60" as="sourcePoint" />
            <mxPoint x="517" y="60" as="targetPoint" />
            <Array as="points" />
          </mxGeometry>
        </mxCell>
        <mxCell id="uGQjyCQQ9CPFhTo40W40-45" value="request routing" style="edgeLabel;html=1;align=center;verticalAlign=middle;resizable=0;points=[];fontSize=12;" vertex="1" connectable="0" parent="uGQjyCQQ9CPFhTo40W40-44">
          <mxGeometry x="-0.3328" y="1" relative="1" as="geometry">
            <mxPoint as="offset" />
          </mxGeometry>
        </mxCell>
        <mxCell id="uGQjyCQQ9CPFhTo40W40-101" value="API &amp; Load Balancing Tier" style="swimlane;" vertex="1" parent="uGQjyCQQ9CPFhTo40W40-124">
          <mxGeometry width="522" height="300" as="geometry" />
        </mxCell>
        <mxCell id="uGQjyCQQ9CPFhTo40W40-125" value="" style="group" vertex="1" connectable="0" parent="uGQjyCQQ9CPFhTo40W40-126">
          <mxGeometry x="114" width="516" height="170" as="geometry" />
        </mxCell>
        <mxCell id="uGQjyCQQ9CPFhTo40W40-22" value="" style="group" vertex="1" connectable="0" parent="uGQjyCQQ9CPFhTo40W40-125">
          <mxGeometry x="187" y="26" width="73" height="105" as="geometry" />
        </mxCell>
        <mxCell id="uGQjyCQQ9CPFhTo40W40-1" value="" style="shape=mxgraph.cisco.computers_and_peripherals.web_browser;html=1;pointerEvents=1;dashed=0;fillColor=#036897;strokeColor=#ffffff;strokeWidth=2;verticalLabelPosition=bottom;verticalAlign=top;align=center;outlineConnect=0;" vertex="1" parent="uGQjyCQQ9CPFhTo40W40-22">
          <mxGeometry width="62" height="64" as="geometry" />
        </mxCell>
        <mxCell id="uGQjyCQQ9CPFhTo40W40-21" value="&lt;font style=&quot;font-size: 14px;&quot;&gt;Client &lt;br&gt;(Browser)&lt;/font&gt;" style="text;html=1;align=center;verticalAlign=middle;resizable=0;points=[];autosize=1;strokeColor=none;fillColor=none;fontSize=16;" vertex="1" parent="uGQjyCQQ9CPFhTo40W40-22">
          <mxGeometry x="-7" y="55" width="80" height="50" as="geometry" />
        </mxCell>
        <mxCell id="uGQjyCQQ9CPFhTo40W40-30" value="" style="group" vertex="1" connectable="0" parent="uGQjyCQQ9CPFhTo40W40-125">
          <mxGeometry x="391" y="40" width="104" height="94" as="geometry" />
        </mxCell>
        <mxCell id="uGQjyCQQ9CPFhTo40W40-2" value="" style="shape=actor;whiteSpace=wrap;html=1;" vertex="1" parent="uGQjyCQQ9CPFhTo40W40-30">
          <mxGeometry x="32" width="40" height="60" as="geometry" />
        </mxCell>
        <mxCell id="uGQjyCQQ9CPFhTo40W40-29" value="&lt;font style=&quot;font-size: 14px;&quot;&gt;Respondent&lt;/font&gt;" style="text;html=1;align=center;verticalAlign=middle;resizable=0;points=[];autosize=1;strokeColor=none;fillColor=none;fontSize=16;" vertex="1" parent="uGQjyCQQ9CPFhTo40W40-30">
          <mxGeometry x="2" y="64" width="100" height="30" as="geometry" />
        </mxCell>
        <mxCell id="uGQjyCQQ9CPFhTo40W40-100" value="Client Tier" style="swimlane;" vertex="1" parent="uGQjyCQQ9CPFhTo40W40-125">
          <mxGeometry width="516" height="170" as="geometry" />
        </mxCell>
      </root>
    </mxGraphModel>
  </diagram>
</mxfile>
